HIERARCHY
ROOT Hips
{
	OFFSET -3.958830 18.904000 13.208200
	CHANNELS 6 Xposition Yposition Zposition Zrotation Yrotation Xrotation 
	JOINT LHipJoint
	{
		OFFSET 0.000000 0.000000 0.000000
		CHANNELS 3 Zrotation Yrotation Xrotation
		JOINT LeftUpLeg
		{
			OFFSET 1.800000 -1.400000 0.085000
			CHANNELS 3 Zrotation Yrotation Xrotation
			JOINT LeftLeg
			{
				OFFSET 2.215000 -6.000000 0.000000
				CHANNELS 3 Zrotation Yrotation Xrotation
				JOINT LeftFoot
				{
					OFFSET 2.500000 -6.900000 0.000000
					CHANNELS 3 Zrotation Yrotation Xrotation
					JOINT LeftToeBase
					{
						OFFSET 0.200000 -0.500000 1.950000
						CHANNELS 3 Zrotation Yrotation Xrotation
						End Site
						{
							OFFSET 0.000000 0.000000 0.000000
						}
					}
				}
			}
		}
	}
	JOINT RHipJoint
	{
		OFFSET 0.000000 0.000000 0.000000
		CHANNELS 3 Zrotation Yrotation Xrotation
		JOINT RightUpLeg
		{
			OFFSET -1.800000 -1.400000 0.085000
			CHANNELS 3 Zrotation Yrotation Xrotation
			JOINT RightLeg
			{
				OFFSET -2.215000 -6.000000 0.000000
				CHANNELS 3 Zrotation Yrotation Xrotation
				JOINT RightFoot
				{
					OFFSET -2.500000 -6.900000 0.000000
					CHANNELS 3 Zrotation Yrotation Xrotation
					JOINT RightToeBase
					{
						OFFSET -0.200000 -0.500000 1.950000
						CHANNELS 3 Zrotation Yrotation Xrotation
						End Site
						{
							OFFSET 0.000000 0.000000 0.000000
						}
					}
				}
			}
		}
	}
	JOINT LowerBack
	{
		OFFSET 0.000000 0.000000 0.000000
		CHANNELS 3 Zrotation Yrotation Xrotation
		JOINT Spine
		{
			OFFSET -0.087000 1.940000 -0.288900
			CHANNELS 3 Zrotation Yrotation Xrotation
			JOINT Spine1
			{
				OFFSET 0.000000 1.950000 0.060000
				CHANNELS 3 Zrotation Yrotation Xrotation
				JOINT Neck
				{
					OFFSET 0.000000 0.000000 0.000000
					CHANNELS 3 Zrotation Yrotation Xrotation
					JOINT Neck1
					{
						OFFSET 0.000000 1.600000 0.340000
						CHANNELS 3 Zrotation Yrotation Xrotation
						JOINT Head
						{
							OFFSET 0.000000 1.667000 -0.240000
							CHANNELS 3 Zrotation Yrotation Xrotation
							End Site
							{
								OFFSET 0.000000 0.000000 0.000000
							}
						}
					}
				}
				JOINT LeftShoulder
				{
					OFFSET 0.000000 0.000000 0.000000
					CHANNELS 3 Zrotation Yrotation Xrotation
					JOINT LeftArm
					{
						OFFSET 2.700000 1.550000 -0.730000
						CHANNELS 3 Zrotation Yrotation Xrotation
						JOINT LeftForeArm
						{
							OFFSET 5.450000 0.000000 0.000000
							CHANNELS 3 Zrotation Yrotation Xrotation
							JOINT LeftHand
							{
								OFFSET 3.450000 0.000000 0.000000
								CHANNELS 3 Zrotation Yrotation Xrotation
								JOINT LeftHandIndex1
								{
									OFFSET 0.750000 0.000000 0.000000
									CHANNELS 3 Zrotation Yrotation Xrotation
									End Site
									{
										OFFSET 0.000000 0.000000 0.000000
									}
								}
							}
						}
					}
				}
				JOINT RightShoulder
				{
					OFFSET 0.000000 0.000000 0.000000
					CHANNELS 3 Zrotation Yrotation Xrotation
					JOINT RightArm
					{
						OFFSET -2.700000 1.550000 -0.730000
						CHANNELS 3 Zrotation Yrotation Xrotation
						JOINT RightForeArm
						{
							OFFSET -5.450000 0.000000 0.000000
							CHANNELS 3 Zrotation Yrotation Xrotation
							JOINT RightHand
							{
								OFFSET -3.450000 0.000000 0.000000
								CHANNELS 3 Zrotation Yrotation Xrotation
								JOINT RightHandIndex1
								{
									OFFSET -0.750000 0.000000 0.000000
									CHANNELS 3 Zrotation Yrotation Xrotation
									End Site
									{
										OFFSET 0.000000 0.000000 0.000000
									}
								}
							}
						}
					}
				}
			}
		}
	}
}
MOTION
Frames: 14
Frame Time: 0.016667
0.659000 17.026170 -3.783880 8.799198 -11.955842 -5.528981 -15.438573 11.571640 4.225602 18.898709 0.858952 -28.798412 -15.781992 24.641677 52.372695 0.966784 12.670827 0.120599 0.729120 0.789390 0.239710 18.266535 -10.487900 2.416488 -4.443095 -0.035116 -4.210651 9.994565 -5.402240 9.144791 -0.696134 -4.169896 2.632147 0.558540 0.472590 0.377410 -3.214336 -0.049610 -8.080228 -6.768607 3.944004 13.465626 -13.819912 9.421022 14.624079 5.193208 -11.018014 -9.566325 -18.262106 10.488862 33.792383 3.995790 -2.048750 -21.157520 0.540415 -32.763537 11.925262 -33.613434 -17.505115 -8.062710 -19.048170 -58.158422 3.823112 -3.313198 3.415750 0.456550 0.052400 0.204490 0.367410 -9.424401 45.919785 -7.578771 12.736535 47.924759 -0.821536 -27.776474 49.830294 -13.754337 2.284295 -1.214948 -0.086670 0.533940 -0.017190 0.193300 
0.619640 16.955370 -3.809910 8.432434 -12.791868 -5.757930 -15.432778 11.460379 4.419731 19.546619 0.953238 -30.056358 -17.233295 25.041650 51.261888 0.921352 12.719517 0.100253 0.690590 0.721280 0.235900 18.295849 -10.434543 2.365057 -3.466583 0.119260 -4.610014 9.654184 -5.485228 10.531411 -0.671885 -4.136948 2.626893 0.538690 0.494120 0.372180 -3.278841 -0.037211 -8.139734 -6.627923 3.953413 14.180601 -14.373443 9.575812 14.903833 5.033338 -10.766653 -10.038418 -17.874511 10.598749 33.044612 3.947100 -1.685690 -20.778700 1.238896 -32.132539 11.748732 -32.213201 -15.732630 -8.516653 -14.798601 -55.876764 1.721988 -3.330674 3.353009 0.479210 0.060250 0.182550 0.345940 -9.899171 45.167016 -6.813138 10.971164 45.909412 -3.421790 -26.622973 50.710600 -13.511986 2.192288 -1.290989 -0.128530 0.549680 0.019760 0.169600 
0.587810 16.878980 -3.834350 7.942031 -12.465079 -5.839081 -15.387888 11.315705 4.562089 19.509505 0.835666 -31.660544 -18.045538 24.826547 50.183035 0.840442 12.595864 0.108645 0.696300 0.718030 0.241690 18.354023 -10.424399 2.378447 -2.706296 0.276113 -4.884043 9.978181 -5.600364 11.254376 -0.680247 -4.146918 2.603781 0.543520 0.480740 0.373330 -3.440272 0.125764 -8.229373 -5.878352 3.828017 15.356508 -15.348432 9.670756 15.150951 4.919189 -10.441861 -10.278126 -17.248339 9.893861 32.315366 4.349930 -2.042080 -21.554610 2.544543 -31.082735 11.139194 -30.617510 -14.939566 -8.598736 -13.242584 -54.149083 1.158203 -3.325683 3.324960 0.502030 0.044480 0.186690 0.332040 -11.088409 43.655635 -6.008346 9.823467 43.891493 -5.696426 -26.586855 50.682805 -13.711476 2.096956 -1.350358 -0.134180 0.549560 0.035100 0.157530 
0.550090 16.822320 -3.868950 7.737393 -13.011046 -6.240778 -15.354682 11.303392 4.648723 19.057582 0.869591 -32.655498 -19.064608 24.484089 48.426787 0.763565 12.385798 0.184092 0.664050 0.656310 0.235250 18.379293 -10.424959 2.382358 -2.142158 0.496223 -5.050196 10.038644 -5.759394 12.711843 -0.675171 -4.167468 2.592925 0.518780 0.504110 0.337820 -3.524056 0.114451 -8.288007 -5.985622 3.891915 16.674008 -16.236283 10.248323 15.694462 4.656599 -10.162515 -11.284046 -16.938460 9.245309 31.619589 5.592820 -2.508520 -21.654050 3.461542 -30.542897 10.729157 -28.763765 -13.487637 -9.027030 -10.086961 -51.576654 -0.144426 -3.301029 3.253027 0.536000 0.021850 0.166680 0.324760 -11.538978 43.263540 -4.322259 7.567797 40.354378 -9.325460 -26.811268 51.203330 -14.164777 2.035224 -1.408628 -0.180740 0.590020 0.057020 0.147250 
0.522800 16.756560 -3.896270 7.216307 -13.717111 -6.345894 -15.300402 11.197201 4.771280 18.845711 0.769271 -33.658365 -20.674804 24.198748 46.329346 0.688715 12.132307 0.228805 0.683040 0.651680 0.279100 18.430356 -10.433921 2.412891 -1.559395 0.737298 -5.252668 10.478574 -5.957146 13.751482 -0.709378 -4.200715 2.548500 0.505430 0.441610 0.344090 -3.681985 0.266981 -8.378434 -5.455134 3.620407 18.042412 -17.576036 10.365796 15.648572 4.750540 -10.153645 -11.925675 -16.997459 8.525765 30.930985 5.561990 -2.666690 -23.083850 3.298141 -29.283899 10.244449 -26.709704 -11.985339 -8.866232 -6.116061 -48.522122 -1.399755 -3.276772 3.215975 0.583030 -0.027410 0.199800 0.298470 -11.642406 42.211578 -2.971860 6.880857 38.371568 -11.204628 -27.389077 50.374057 -14.328549 1.977424 -1.439158 -0.169930 0.560000 0.055100 0.119840 
0.509490 16.712420 -3.940340 5.794403 -14.512483 -7.197817 -15.173420 11.106626 4.797286 19.008427 0.774094 -33.824012 -20.971167 23.442780 45.092199 0.626669 11.824000 0.289471 0.731290 0.690330 0.336410 18.538795 -10.534885 2.525370 -0.353390 0.863549 -4.632288 10.814077 -6.201901 14.912613 -0.798586 -4.300216 2.481132 0.499820 0.357060 0.350350 -4.026162 0.596278 -8.511263 -3.459796 2.648920 20.623665 -19.454820 10.341692 16.327403 4.867798 -10.183929 -12.995395 -17.220959 8.108150 30.856909 6.204710 -2.601560 -24.964860 3.018299 -28.737596 10.003972 -23.921690 -10.249452 -8.845265 -1.434423 -44.827836 -2.715298 -3.212916 3.193293 0.637450 -0.103640 0.265100 0.288690 -11.601046 41.769613 -1.409692 5.601033 35.729836 -13.553335 -28.941726 48.012505 -14.560931 1.997790 -1.489906 -0.135250 0.525970 0.023720 0.106760 
0.498610 16.642380 -3.978620 4.282197 -14.994570 -7.564974 -15.131985 11.040657 4.901748 19.185653 0.521021 -34.588620 -21.680482 22.931597 43.960654 0.605635 11.660434 0.360841 0.670500 0.627500 0.301880 18.587278 -10.463794 2.599675 1.135756 1.179130 -4.526953 11.444969 -6.542465 16.473624 -0.818145 -4.429143 2.467052 0.453970 0.375310 0.329870 -4.163969 0.562884 -8.613176 -2.373879 1.590769 22.339394 -20.263415 9.828304 16.796942 4.978156 -10.032602 -14.264651 -17.267797 8.258357 30.615924 6.031400 -2.051970 -24.257470 2.226784 -28.394440 10.314855 -22.173653 -7.998729 -8.381076 3.367594 -40.526308 -3.782006 -3.249625 3.122502 0.639900 -0.092340 0.250540 0.280170 -10.976569 41.411671 0.139893 4.315721 33.348735 -14.888785 -29.359532 45.137718 -13.893033 1.990860 -1.521765 -0.157070 0.533080 0.038820 0.103520 
0.474020 16.582930 -4.002670 3.188393 -15.154576 -8.269574 -15.078224 11.042427 4.885644 18.367843 0.124333 -34.666320 -22.578460 21.982261 41.897715 0.559577 11.261674 0.477704 0.638350 0.593070 0.284130 18.624771 -10.451846 2.705000 2.237834 1.494525 -4.124620 12.355472 -6.990756 17.976150 -0.882276 -4.618672 2.395834 0.407240 0.349630 0.346540 -4.283451 0.566013 -8.638002 -2.101767 0.952953 24.356609 -20.636613 9.564901 16.992595 4.800779 -9.848620 -15.263434 -17.299003 8.046260 30.529917 6.294840 -1.782760 -24.869840 1.496125 -27.359967 10.087345 -20.512896 -6.854166 -7.558004 6.796263 -36.157213 -4.155034 -3.291299 3.087142 0.657840 -0.114020 0.276300 0.260240 -9.910429 40.443248 2.313391 4.027614 30.951686 -16.462277 -29.601012 44.904110 -13.839899 1.924798 -1.541728 -0.134890 0.499770 0.053970 0.104670 
0.445190 16.517100 -4.019570 2.394011 -15.251420 -8.784165 -15.075021 11.034005 4.890808 17.281605 -0.438301 -35.050732 -23.500001 21.337858 40.475572 0.515987 10.980324 0.559942 0.659900 0.625270 0.308130 18.629376 -10.412760 2.749228 3.373351 1.673670 -3.912549 12.269665 -7.199981 19.469321 -0.934208 -4.733850 2.349785 0.415400 0.314950 0.353310 -4.286841 0.511524 -8.594419 -2.698903 0.691880 25.828302 -20.375413 9.353752 17.343717 4.592569 -9.566607 -15.469009 -16.669961 7.582323 29.304657 5.881000 -1.473130 -26.002610 1.529781 -25.636369 9.669998 -20.025094 -6.529970 -6.536669 10.620356 -31.682931 -4.550108 -3.349469 3.039938 0.671210 -0.129450 0.305440 0.255660 -9.568412 38.697561 4.015069 4.765315 28.907328 -17.599661 -30.407888 46.079022 -14.631387 1.818638 -1.565446 -0.118350 0.486380 0.037510 0.097590 
0.417570 16.483000 -4.054620 0.743479 -16.190992 -10.284739 -14.999851 11.012927 4.780596 16.987006 -0.492413 -33.979238 -23.930378 20.633739 39.212627 0.475509 10.652530 0.646867 0.710610 0.711240 0.382290 18.693659 -10.479198 2.882275 5.317089 1.865382 -2.765850 11.714942 -7.473613 21.910495 -1.063702 -4.950611 2.272045 0.441680 0.230280 0.338950 -4.490714 0.762663 -8.570731 -2.195858 -0.288507 28.716737 -20.860414 8.936978 18.055687 4.599097 -9.418914 -15.836416 -16.289889 8.144414 28.972471 5.188770 -0.099510 -28.724600 1.516125 -24.390640 9.726646 -19.395745 -4.703968 -6.161318 14.370421 -27.676811 -4.847057 -3.357282 2.971254 0.717990 -0.182840 0.392700 0.245380 -9.492632 37.413457 5.202210 5.491034 27.550103 -18.685394 -32.893450 44.956199 -15.752889 1.832039 -1.547034 -0.095530 0.498090 -0.013870 0.080940 
0.377770 16.433840 -4.076180 -0.508226 -18.212833 -10.848998 -14.979962 10.993475 4.702547 16.673725 -0.196369 -33.498858 -24.538955 20.367542 38.003832 0.418446 10.498696 0.690134 0.729090 0.717850 0.415400 18.722139 -10.459318 2.992793 7.530464 2.363053 -2.474016 10.361955 -7.432502 24.813963 -1.133638 -5.141456 2.189841 0.453490 0.217340 0.338720 -4.590658 0.881702 -8.525686 -2.482973 -0.373488 29.851748 -20.758053 9.105201 18.493824 4.122116 -9.281423 -16.084295 -15.790825 8.569459 27.638245 5.105190 0.745870 -29.313840 2.095320 -22.681765 9.608735 -19.915609 -3.503050 -5.276746 16.308969 -23.508607 -4.626571 -3.416699 2.945814 0.750780 -0.195760 0.405720 0.241350 -9.082401 35.789702 6.757862 7.317715 26.203060 -18.988078 -34.848935 43.277308 -16.501182 1.818439 -1.574234 -0.112380 0.504400 -0.018150 0.060280 
0.336320 16.389880 -4.105050 -1.333344 -19.392952 -12.038192 -14.986436 11.026922 4.641343 15.790546 -0.325152 -32.670766 -25.810468 20.318342 37.054226 0.463518 10.371814 0.744437 0.751290 0.764590 0.464390 18.708966 -10.402720 3.107582 9.004393 2.783422 -1.698481 10.066773 -7.609145 26.965259 -1.234480 -5.369362 2.123348 0.457160 0.165770 0.333520 -4.569181 0.858629 -8.507901 -3.970072 -0.129767 32.296532 -20.089086 9.226593 18.539850 4.010669 -8.836824 -16.594367 -14.829864 8.453171 26.950634 3.943170 1.786710 -30.758210 1.575981 -21.370885 9.396489 -18.271786 -2.330770 -4.205130 15.737889 -19.123500 -3.657093 -3.459137 2.875903 0.772630 -0.216870 0.461830 0.238520 -8.307737 34.657176 8.098515 8.004973 23.789821 -19.037845 -34.877585 40.592654 -15.804080 1.868359 -1.627546 -0.095830 0.500560 -0.062520 0.050320 
0.298830 16.316740 -4.120890 -2.042927 -19.974701 -12.319967 -14.968141 10.919062 4.639919 14.564428 -0.804664 -32.474959 -27.811935 20.341999 35.697161 0.477816 10.280989 0.781459 0.776370 0.768490 0.513780 18.736101 -10.361177 3.203733 10.420046 3.273409 -1.812890 10.080918 -7.755576 28.577855 -1.292871 -5.530266 2.052183 0.457830 0.128730 0.327100 -4.660569 1.031100 -8.510004 -4.729986 -0.268972 33.782446 -20.455498 8.999365 18.134884 3.830764 -8.312567 -16.605321 -13.677620 8.448659 25.944153 3.976160 2.464110 -31.140350 2.133828 -19.623834 9.115786 -17.689854 -1.149457 -3.567754 15.504790 -16.342668 -3.116329 -3.481520 2.867617 0.804410 -0.243630 0.473860 0.229500 -8.582388 32.535830 9.150170 10.569355 22.532455 -17.788100 -34.744191 37.672918 -15.033277 1.893422 -1.680739 -0.103630 0.476980 -0.084070 0.022950 
0.249040 16.240510 -4.116080 -2.628630 -21.787549 -12.742435 -14.965698 10.877386 4.558020 13.739202 -0.450749 -31.379605 -30.029813 20.585063 33.850094 0.617304 10.134467 0.844221 0.789320 0.850310 0.472810 18.742849 -10.315586 3.330544 11.948070 4.093512 -1.705895 9.774776 -7.850438 31.217017 -1.372565 -5.835525 1.973057 0.468200 0.115590 0.345530 -4.723358 1.186477 -8.491962 -5.649110 0.554012 34.796069 -20.035906 9.420143 17.603929 3.333861 -8.010682 -16.575713 -12.958559 8.955114 25.041674 4.128370 3.395440 -30.426380 3.016704 -17.633559 8.718033 -18.095450 -0.825751 -2.963008 15.331115 -13.291547 -2.547169 -3.541261 2.900812 0.729970 -0.225160 0.495440 0.255230 -8.565513 30.505337 10.095228 12.998759 20.384868 -16.305709 -33.663943 35.627394 -13.993087 1.936336 -1.755258 -0.030020 0.424790 -0.123690 0.073290 
